<svg xmlns="http://www.w3.org/2000/svg" width="309.38" height="34.314" viewBox="0 0 309.38 34.314">
  <g id="Group_1" data-name="Group 1" transform="translate(-0.01 -0.01)">
    <g id="Group_6184" data-name="Group 6184" transform="translate(0.01 0.01)">
      <path id="Path_4876" data-name="Path 4876" d="M344.738,1.759l-8.932,33.168h-10.3l3.527-13.256H317.6l-3.527,13.256h-10.3l6.713-24.976a10.4,10.4,0,0,1,4.495-6.713A16.861,16.861,0,0,1,323.005,1.7ZM121.209,6.538a13.656,13.656,0,0,1-.626,3.755l-4.21,15.645a12.3,12.3,0,0,1-4.267,7.282,15.73,15.73,0,0,1-8.363,1.707H82.01L90.885,1.759h21.733a16.819,16.819,0,0,1,5.575.626,4.09,4.09,0,0,1,3.015,4.153ZM110.342,10.35H98.85L94.64,26h11.492C106.132,25.938,110.342,10.35,110.342,10.35Zm46.652-3.812a4.047,4.047,0,0,0-3.015-4.153,16.818,16.818,0,0,0-5.575-.626H126.67l-8.932,33.168h21.733a15.73,15.73,0,0,0,8.363-1.707,11.761,11.761,0,0,0,4.267-7.282l4.21-15.645a13.7,13.7,0,0,0,.683-3.755ZM146.071,10.35,141.861,26H130.368l4.21-15.645Zm45.855-8.591L189.65,10.35H170.022l-1.138,4.324h13.427c4.153,0,6.258,1.479,6.258,4.494a46.565,46.565,0,0,1-1.536,6.77,13.671,13.671,0,0,1-3.812,7.055,11.916,11.916,0,0,1-7.624,1.934H153.239l2.389-8.989h21.221l1.138-4.267H164.561a8.629,8.629,0,0,1-5.4-1.195,3.635,3.635,0,0,1-1.024-2.788,47.8,47.8,0,0,1,1.65-7.4,12.4,12.4,0,0,1,3.755-6.713,12.472,12.472,0,0,1,7.51-1.877Zm34.534,4.665a3.908,3.908,0,0,0-2.389-3.982,12.158,12.158,0,0,0-4.95-.683H196.7l-8.875,33.168h10.3L201.654,21.9H214.91a10.847,10.847,0,0,0,5.348-1.195,9.334,9.334,0,0,0,4.438-6.087l1.081-4.039a17.128,17.128,0,0,0,.683-4.153ZM215.536,10.35,214.341,14.9h-10.81l1.195-4.551Zm43.636-8.591L256.9,10.35H239.2l-1.138,4.324h16.1l-1.877,7h-16.1l-1.138,4.267h17.693l-2.389,8.989h-28.1l8.875-33.168Zm33.68,4.779a4.047,4.047,0,0,0-3.015-4.153,16.819,16.819,0,0,0-5.575-.626H262.529l-8.875,33.168h21.733a15.73,15.73,0,0,0,8.363-1.707,11.761,11.761,0,0,0,4.267-7.282l4.21-15.645a13.655,13.655,0,0,0,.626-3.755ZM281.986,10.35,277.776,26H266.284l4.21-15.645Zm50.236-.4H320.786l-1.309,5.063h11.435Z" transform="translate(-35.358 -0.727)" fill="#fff" fill-rule="evenodd"/>
      <path id="Path_4877" data-name="Path 4877" d="M43.533,29.09a17.316,17.316,0,0,0,1.479-3.7L49.62,9.235c1.024-3.584.91-6.087-.4-7.4C48.027.644,45.524.019,41.655.019H29.878a20.815,20.815,0,0,0-6.2.74,9.035,9.035,0,0,0-5.4,4.381,20.394,20.394,0,0,0-1.65,4.153L12.014,25.449h6.941L.01,34.211H31.87a20.815,20.815,0,0,0,6.2-.74,9.312,9.312,0,0,0,5.462-4.381Zm-9.16-3.7H22.6L27.2,9.292H42.964l-4.779,2.731Z" transform="translate(-0.01 -0.01)" fill="#00b1ff" fill-rule="evenodd"/>
      <g id="Group_6183" data-name="Group 6183" transform="translate(254.034 0.691)">
        <path id="Path_4878" data-name="Path 4878" d="M446.529,39.848h10.3l7.794-27.024L449.146,30.916Z" transform="translate(-446.529 -6.225)" fill="#fff"/>
        <path id="Path_4879" data-name="Path 4879" d="M454.029,18.69,468.935,1.224h-9.9Z" transform="translate(-449.762 -1.224)" fill="#00b1ff"/>
      </g>
    </g>
  </g>
</svg>
